<svg width="332" height="215" viewBox="0 0 332 215" fill="none" xmlns="http://www.w3.org/2000/svg">
<g clip-path="url(#clip0_112_45)">
<path d="M287.581 56.0768C285.176 58.4915 281.915 59.848 278.515 59.848C275.114 59.848 271.853 58.4915 269.448 56.0768C269.082 55.7223 268.592 55.5265 268.083 55.5317C267.575 55.5368 267.088 55.7425 266.729 56.1043C266.37 56.4661 266.167 56.9552 266.163 57.4662C266.159 57.9772 266.356 58.4692 266.71 58.8362C269.845 61.9759 274.091 63.7389 278.518 63.7389C282.945 63.7389 287.192 61.9759 290.327 58.8362C290.692 58.4703 290.896 57.974 290.896 57.4565C290.896 56.939 290.692 56.4427 290.327 56.0768C290.147 55.8956 289.933 55.7519 289.697 55.6538C289.462 55.5558 289.209 55.5053 288.954 55.5053C288.439 55.5053 287.945 55.7109 287.581 56.0768V56.0768Z" fill="black"/>
<path d="M315.435 31.0317H312.331C311.141 27.9485 309.05 25.2997 306.332 23.4341C303.615 21.5685 300.398 20.5736 297.107 20.5803C293.815 20.5871 290.603 21.5952 287.893 23.4719C285.183 25.3487 283.102 28.006 281.925 31.094L275.826 31.0472C274.638 27.9692 272.552 25.3239 269.841 23.4585C267.13 21.5932 263.92 20.595 260.634 20.595C257.348 20.595 254.139 21.5932 251.428 23.4585C248.717 25.3239 246.63 27.9692 245.443 31.0472H242.905C242.391 31.0472 241.898 31.2526 241.534 31.618C241.17 31.9835 240.966 32.4791 240.966 32.996C240.966 33.5128 241.17 34.0085 241.534 34.3739C241.898 34.7394 242.391 34.9447 242.905 34.9447H244.457C244.374 35.6015 244.33 36.2626 244.325 36.9246C244.325 41.2661 246.042 45.4297 249.098 48.4995C252.153 51.5694 256.298 53.294 260.619 53.294C264.94 53.294 269.084 51.5694 272.14 48.4995C275.196 45.4297 276.912 41.2661 276.912 36.9246C276.908 36.2704 276.864 35.617 276.78 34.9681H280.955C280.874 35.6067 280.833 36.2497 280.831 36.8935C280.831 41.2349 282.547 45.3985 285.603 48.4683C288.658 51.5382 292.803 53.2628 297.124 53.2628C301.445 53.2628 305.59 51.5382 308.645 48.4683C311.701 45.3985 313.418 41.2349 313.418 36.8935C313.413 36.2314 313.369 35.5703 313.286 34.9135H315.435C315.949 34.9135 316.443 34.7082 316.807 34.3428C317.17 33.9773 317.375 33.4816 317.375 32.9648C317.375 32.448 317.17 31.9523 316.807 31.5868C316.443 31.2214 315.949 31.0161 315.435 31.0161V31.0317ZM260.619 49.3809C258.164 49.3809 255.763 48.6495 253.722 47.279C251.68 45.9086 250.089 43.9608 249.15 41.6818C248.21 39.4029 247.964 36.8952 248.443 34.4759C248.922 32.0566 250.105 29.8343 251.841 28.0901C253.577 26.3458 255.789 25.158 258.197 24.6768C260.605 24.1955 263.101 24.4425 265.37 25.3865C267.638 26.3305 269.577 27.929 270.941 29.98C272.305 32.031 273.033 34.4423 273.033 36.909C273.033 40.2168 271.725 43.3891 269.397 45.728C267.069 48.0669 263.911 49.3809 260.619 49.3809ZM297.124 49.3809C294.669 49.3809 292.269 48.6495 290.227 47.279C288.186 45.9086 286.595 43.9608 285.655 41.6818C284.715 39.4029 284.47 36.8952 284.949 34.4759C285.428 32.0566 286.61 29.8343 288.346 28.0901C290.082 26.3458 292.294 25.158 294.702 24.6768C297.11 24.1955 299.606 24.4425 301.875 25.3865C304.143 26.3305 306.082 27.929 307.446 29.98C308.81 32.031 309.538 34.4423 309.538 36.909C309.538 40.2168 308.23 43.3891 305.902 45.728C303.574 48.0669 300.417 49.3809 297.124 49.3809Z" fill="black"/>
<path d="M280.311 72.7112C280.261 72.5947 280.201 72.4825 280.132 72.376C280.062 72.2673 279.979 72.1678 279.884 72.0798C279.796 71.9869 279.697 71.9056 279.589 71.8381C279.485 71.7663 279.373 71.7061 279.256 71.6589C279.141 71.6083 279.021 71.5691 278.899 71.5419C278.642 71.4932 278.379 71.4932 278.123 71.5419C277.998 71.5691 277.876 71.6082 277.758 71.6589C277.641 71.7061 277.529 71.7663 277.424 71.8381C277.316 71.9056 277.217 71.9869 277.13 72.0798C276.767 72.4451 276.564 72.9398 276.564 73.4556C276.564 73.9714 276.767 74.4661 277.13 74.8314C277.217 74.9243 277.316 75.0055 277.424 75.073C277.637 75.2136 277.874 75.314 278.123 75.3692C278.249 75.3811 278.376 75.3811 278.503 75.3692C278.757 75.3681 279.009 75.3165 279.243 75.2175C279.477 75.1186 279.69 74.9741 279.868 74.7924C279.961 74.7026 280.044 74.6034 280.117 74.4962C280.185 74.3897 280.245 74.2775 280.295 74.161C280.343 74.0427 280.379 73.92 280.404 73.7947C280.459 73.5378 280.459 73.2721 280.404 73.0152C280.381 72.9115 280.35 72.8098 280.311 72.7112V72.7112Z" fill="black"/>
<path d="M271.093 3.89747C282.372 3.89747 293.398 7.25763 302.776 13.553C312.154 19.8485 319.463 28.7964 323.78 39.2653C328.096 49.7342 329.225 61.2538 327.025 72.3675C324.824 83.4813 319.393 93.6899 311.418 101.702C303.442 109.715 293.281 115.172 282.219 117.382C271.157 119.593 259.69 118.458 249.27 114.122C238.849 109.786 229.943 102.442 223.677 93.0204C217.41 83.5987 214.066 72.5217 214.066 61.1903C214.065 53.6662 215.539 46.2156 218.405 39.2641C221.27 32.3125 225.471 25.9962 230.767 20.6759C236.062 15.3555 242.349 11.1354 249.269 8.25654C256.188 5.37767 263.604 3.89645 271.093 3.89747V3.89747ZM271.093 0C259.047 0 247.271 3.58875 237.255 10.3124C227.239 17.0361 219.433 26.5927 214.823 37.7738C210.213 48.9548 209.007 61.2581 211.357 73.1279C213.707 84.9976 219.508 95.9007 228.026 104.458C236.544 113.016 247.396 118.844 259.211 121.205C271.026 123.566 283.272 122.354 294.401 117.723C305.531 113.091 315.043 105.248 321.735 95.1858C328.428 85.1231 332 73.2926 332 61.1903C331.982 44.9673 325.559 29.4141 314.14 17.9427C302.722 6.47134 287.241 0.0185677 271.093 0V0Z" fill="black"/>
<path d="M105.737 185.473C101.309 185.469 97.0641 183.7 93.9325 180.556C90.8008 177.411 89.0386 173.146 89.0325 168.698V154.73C89.0325 154.213 89.2368 153.717 89.6006 153.352C89.9644 152.986 90.4577 152.781 90.9722 152.781C91.4866 152.781 91.98 152.986 92.3438 153.352C92.7075 153.717 92.9119 154.213 92.9119 154.73V168.698C92.9942 172.06 94.3812 175.255 96.7767 177.604C99.1722 179.952 102.386 181.266 105.733 181.266C109.08 181.266 112.294 179.952 114.69 177.604C117.086 175.255 118.472 172.06 118.555 168.698V154.73C118.555 154.213 118.759 153.717 119.123 153.352C119.487 152.986 119.98 152.781 120.495 152.781C121.009 152.781 121.502 152.986 121.866 153.352C122.23 153.717 122.434 154.213 122.434 154.73V168.698C122.428 173.145 120.667 177.408 117.537 180.553C114.407 183.697 110.164 185.467 105.737 185.473V185.473Z" fill="black"/>
<path d="M228.614 152.656C233.039 152.66 237.283 154.428 240.413 157.571C243.543 160.714 245.305 164.977 245.311 169.423V183.384C245.311 183.901 245.106 184.396 244.743 184.762C244.379 185.127 243.885 185.332 243.371 185.332C242.857 185.332 242.363 185.127 241.999 184.762C241.636 184.396 241.431 183.901 241.431 183.384V169.423C241.269 166.121 239.85 163.009 237.467 160.73C235.084 158.45 231.919 157.179 228.629 157.179C225.339 157.179 222.175 158.45 219.792 160.73C217.408 163.009 215.989 166.121 215.827 169.423V183.384C215.827 183.901 215.623 184.396 215.259 184.762C214.895 185.127 214.402 185.332 213.887 185.332C213.373 185.332 212.88 185.127 212.516 184.762C212.152 184.396 211.948 183.901 211.948 183.384V169.423C211.954 164.982 213.711 160.724 216.834 157.582C219.958 154.44 224.193 152.668 228.614 152.656V152.656Z" fill="black"/>
<path d="M151.429 197.952C147 197.946 142.755 196.176 139.624 193.03C136.492 189.884 134.73 185.619 134.724 181.17V181.17C134.724 180.653 134.929 180.157 135.292 179.792C135.656 179.427 136.149 179.221 136.664 179.221C137.178 179.221 137.672 179.427 138.035 179.792C138.399 180.157 138.604 180.653 138.604 181.17V181.17C138.498 182.924 138.751 184.682 139.347 186.334C139.943 187.986 140.869 189.499 142.068 190.778C143.267 192.058 144.714 193.078 146.32 193.775C147.926 194.471 149.656 194.831 151.406 194.831C153.155 194.831 154.886 194.471 156.492 193.775C158.098 193.078 159.545 192.058 160.744 190.778C161.943 189.499 162.869 187.986 163.464 186.334C164.06 184.682 164.313 182.924 164.208 181.17V154.73C164.208 154.213 164.412 153.717 164.776 153.352C165.14 152.986 165.633 152.781 166.147 152.781C166.662 152.781 167.155 152.986 167.519 153.352C167.883 153.717 168.087 154.213 168.087 154.73V181.17C168.083 185.612 166.328 189.871 163.206 193.016C160.085 196.161 155.85 197.936 151.429 197.952V197.952Z" fill="black"/>
<path d="M51.6738 122.497C46.2262 122.502 40.8618 121.156 36.0561 118.578C31.2504 116.001 27.152 112.272 24.1244 107.722C21.0967 103.173 19.2334 97.9425 18.6995 92.4959C18.1657 87.0494 18.9779 81.5546 21.064 76.4989C23.1502 71.4433 26.4459 66.9829 30.6589 63.5133C34.8719 60.0438 39.872 57.6722 45.2158 56.6091C50.5595 55.5459 56.0819 55.824 61.2931 57.4185C66.5043 59.0131 71.2433 61.875 75.0899 65.7503C75.37 66.1256 75.5061 66.5898 75.473 67.0577C75.4399 67.5256 75.2399 67.9658 74.9097 68.2975C74.5796 68.6292 74.1414 68.8301 73.6756 68.8634C73.2099 68.8966 72.7478 68.76 72.3743 68.4785C68.2856 64.3712 63.0764 61.5741 57.4053 60.441C51.7343 59.3079 45.8562 59.8897 40.5144 62.1128C35.1725 64.336 30.6067 68.1006 27.3944 72.9306C24.1821 77.7606 22.4676 83.4392 22.4676 89.2482C22.4676 95.0571 24.1821 100.736 27.3944 105.566C30.6067 110.396 35.1725 114.16 40.5144 116.383C45.8562 118.607 51.7343 119.188 57.4053 118.055C63.0764 116.922 68.2856 114.125 72.3743 110.018C72.7396 109.662 73.2293 109.465 73.738 109.469C74.2466 109.472 74.7334 109.677 75.0935 110.038C75.4537 110.398 75.6584 110.887 75.6635 111.398C75.6686 111.909 75.4738 112.401 75.1209 112.769C72.0442 115.864 68.3886 118.317 64.3645 119.986C60.3405 121.656 56.0275 122.509 51.6738 122.497V122.497Z" fill="black"/>
<path d="M143.655 122.497C141.172 122.497 135.12 120.861 131.846 117.587C128.719 114.438 126.962 110.171 126.962 105.723C126.962 101.275 128.719 97.008 131.846 93.8589C132.026 93.6777 132.24 93.5339 132.476 93.4359C132.711 93.3378 132.964 93.2874 133.219 93.2874C133.474 93.2874 133.727 93.3378 133.962 93.4359C134.198 93.5339 134.412 93.6777 134.592 93.8589C134.773 94.04 134.916 94.2551 135.013 94.4919C135.111 94.7286 135.161 94.9823 135.161 95.2386C135.161 95.4948 135.111 95.7485 135.013 95.9853C134.916 96.222 134.773 96.4371 134.592 96.6183C132.192 99.0365 130.845 102.312 130.845 105.727C130.845 109.141 132.192 112.417 134.592 114.835C137.029 117.283 142.118 118.6 143.655 118.6C145.191 118.6 150.281 117.283 152.725 114.835C155.124 112.417 156.472 109.141 156.472 105.727C156.472 102.312 155.124 99.0365 152.725 96.6183C152.539 96.4388 152.391 96.2239 152.289 95.9863C152.187 95.7487 152.133 95.4931 152.131 95.2344C152.128 94.9756 152.177 94.719 152.274 94.4793C152.371 94.2397 152.515 94.0219 152.697 93.8387C152.879 93.6555 153.095 93.5105 153.333 93.4122C153.571 93.3138 153.827 93.2642 154.084 93.266C154.342 93.2679 154.596 93.3213 154.833 93.4231C155.07 93.5249 155.284 93.673 155.463 93.8589C158.591 97.008 160.347 101.275 160.347 105.723C160.347 110.171 158.591 114.438 155.463 117.587C152.205 120.861 146.137 122.497 143.655 122.497Z" fill="black"/>
<path d="M180.525 93.6562C182.98 93.6562 185.38 94.3877 187.421 95.7581C189.463 97.1285 191.054 99.0764 191.994 101.355C192.933 103.634 193.179 106.142 192.7 108.561C192.221 110.981 191.039 113.203 189.303 114.947C187.566 116.691 185.355 117.879 182.946 118.36C180.538 118.842 178.042 118.595 175.774 117.651C173.505 116.707 171.567 115.108 170.203 113.057C168.839 111.006 168.11 108.595 168.11 106.128C168.11 102.82 169.418 99.6481 171.746 97.3091C174.075 94.9702 177.232 93.6562 180.525 93.6562V93.6562ZM180.525 89.7587C177.302 89.7587 174.152 90.7188 171.472 92.5175C168.793 94.3162 166.705 96.8727 165.471 99.8638C164.238 102.855 163.915 106.146 164.544 109.322C165.173 112.497 166.725 115.414 169.003 117.703C171.282 119.992 174.185 121.551 177.346 122.183C180.506 122.815 183.783 122.49 186.76 121.251C189.737 120.012 192.282 117.914 194.072 115.222C195.862 112.531 196.818 109.366 196.818 106.128C196.818 101.787 195.101 97.6231 192.046 94.5532C188.99 91.4834 184.846 89.7587 180.525 89.7587V89.7587Z" fill="black"/>
<path d="M265.616 156.499C268.071 156.499 270.471 157.23 272.512 158.601C274.554 159.971 276.145 161.919 277.085 164.198C278.024 166.477 278.27 168.985 277.791 171.404C277.312 173.823 276.13 176.046 274.394 177.79C272.658 179.534 270.446 180.722 268.037 181.203C265.629 181.684 263.133 181.437 260.865 180.493C258.596 179.549 256.658 177.951 255.294 175.9C253.929 173.849 253.201 171.438 253.201 168.971C253.201 165.663 254.509 162.491 256.837 160.152C259.165 157.813 262.323 156.499 265.616 156.499ZM265.616 152.602C262.393 152.602 259.243 153.562 256.563 155.36C253.884 157.159 251.795 159.716 250.562 162.707C249.329 165.698 249.006 168.989 249.635 172.164C250.264 175.34 251.816 178.257 254.094 180.546C256.373 182.835 259.276 184.394 262.437 185.026C265.597 185.657 268.874 185.333 271.851 184.094C274.828 182.855 277.373 180.757 279.163 178.065C280.953 175.373 281.909 172.208 281.909 168.971C281.909 164.629 280.192 160.466 277.137 157.396C274.081 154.326 269.937 152.602 265.616 152.602V152.602Z" fill="black"/>
<path d="M70.7061 189.401L69.8216 188.513L69.6044 188.287C73.8401 185.602 77.4197 181.993 80.0777 177.728C82.7357 173.463 84.4038 168.652 84.9583 163.651C85.5128 158.65 84.9394 153.588 83.2808 148.84C81.6221 144.092 78.9207 139.78 75.3769 136.224C71.0527 131.888 65.6265 128.828 59.6899 127.378C53.7533 125.928 47.5344 126.144 41.7114 128.001C35.8884 129.859 30.6849 133.287 26.6684 137.912C22.6519 142.537 19.9767 148.182 18.9344 154.23C17.8921 160.278 18.5229 166.497 20.7579 172.21C22.9929 177.922 26.7463 182.908 31.6087 186.625C36.4712 190.341 42.256 192.644 48.3322 193.284C54.4085 193.923 60.5429 192.874 66.0663 190.251L67.075 191.264L67.9595 192.153L73.6157 197.843C73.9799 198.209 74.4739 198.415 74.989 198.415C75.5041 198.415 75.9981 198.209 76.3623 197.843C76.7265 197.477 76.9311 196.981 76.9311 196.464C76.9311 195.946 76.7265 195.45 76.3623 195.084L70.7061 189.401ZM51.7668 189.573C44.6668 189.556 37.8137 186.953 32.4786 182.247C27.1435 177.54 23.6884 171.049 22.7542 163.978C21.82 156.907 23.4701 149.736 27.3984 143.794C31.3266 137.852 37.2666 133.543 44.1164 131.666C50.9663 129.789 58.2612 130.472 64.6483 133.587C71.0353 136.703 76.0809 142.04 78.8494 148.608C81.6178 155.177 81.9212 162.531 79.7032 169.307C77.4852 176.083 72.8964 181.821 66.7879 185.457L64.1654 182.822C63.8012 182.457 63.3072 182.251 62.7921 182.251C62.277 182.251 61.783 182.457 61.4188 182.822C61.0546 183.188 60.85 183.685 60.85 184.202C60.85 184.72 61.0546 185.216 61.4188 185.582L63.1257 187.289C59.527 188.797 55.6662 189.574 51.7668 189.573V189.573Z" fill="black"/>
<path d="M86.0919 118.99C88.6765 121.036 91.8174 122.249 95.1011 122.467C98.3848 122.685 101.657 121.9 104.488 120.214L106.482 121.773C106.681 121.941 106.911 122.067 107.159 122.144C107.407 122.221 107.668 122.247 107.927 122.221C108.185 122.194 108.436 122.116 108.664 121.991C108.891 121.865 109.092 121.695 109.253 121.491C109.414 121.286 109.533 121.051 109.602 120.799C109.671 120.548 109.688 120.285 109.654 120.026C109.62 119.767 109.535 119.518 109.403 119.293C109.271 119.068 109.096 118.872 108.887 118.717L107.654 117.743C108.124 117.278 108.567 116.786 108.98 116.269C110.978 113.729 112.18 110.65 112.436 107.423C112.692 104.196 111.99 100.965 110.418 98.1389C108.846 95.3128 106.476 93.0183 103.606 91.5456C100.737 90.0729 97.4966 89.4881 94.2962 89.8653C91.0958 90.2424 88.0785 91.5644 85.6259 93.6643C83.1733 95.7641 81.3955 98.5474 80.5174 101.662C79.6392 104.777 79.7001 108.084 80.6924 111.164C81.6846 114.244 83.5637 116.959 86.0919 118.966V118.99ZM103.883 96.3844C105.81 97.913 107.243 99.9815 108 102.328C108.757 104.675 108.804 107.194 108.136 109.568C107.467 111.942 106.113 114.063 104.245 115.664C102.376 117.264 100.077 118.272 97.6388 118.56C95.2002 118.848 92.7314 118.403 90.5446 117.281C88.3578 116.159 86.5512 114.411 85.3534 112.257C84.1556 110.104 83.6204 107.642 83.8154 105.183C84.0103 102.724 84.9268 100.378 86.4488 98.4423C87.4575 97.1555 88.7086 96.081 90.1306 95.28C91.5527 94.479 93.1179 93.9672 94.7368 93.774C96.3557 93.5807 97.9967 93.7097 99.5659 94.1536C101.135 94.5975 102.602 95.3476 103.883 96.361V96.3844Z" fill="black"/>
<path d="M181.525 181.965C184.11 184.012 187.251 185.224 190.535 185.442C193.818 185.661 197.091 184.875 199.922 183.189L201.908 184.748C202.312 185.068 202.827 185.214 203.338 185.154C203.85 185.093 204.316 184.831 204.635 184.424C204.954 184.018 205.099 183.501 205.039 182.987C204.978 182.474 204.717 182.005 204.313 181.684L203.087 180.71C203.555 180.248 203.995 179.758 204.406 179.245C206.404 176.704 207.608 173.626 207.865 170.398C208.121 167.171 207.419 163.939 205.848 161.112C204.276 158.286 201.906 155.99 199.036 154.517C196.166 153.044 192.925 152.46 189.724 152.837C186.523 153.214 183.506 154.537 181.053 156.637C178.6 158.738 176.823 161.522 175.945 164.637C175.068 167.753 175.129 171.06 176.123 174.14C177.116 177.22 178.996 179.935 181.525 181.942V181.965ZM199.316 159.36C201.242 160.889 202.674 162.958 203.43 165.304C204.186 167.651 204.232 170.17 203.563 172.543C202.895 174.916 201.54 177.036 199.672 178.636C197.804 180.236 195.505 181.244 193.067 181.531C190.629 181.819 188.16 181.374 185.974 180.253C183.787 179.131 181.981 177.383 180.783 175.231C179.585 173.078 179.05 170.616 179.244 168.158C179.438 165.699 180.354 163.354 181.875 161.418C182.883 160.129 184.134 159.053 185.556 158.251C186.979 157.448 188.545 156.935 190.164 156.741C191.784 156.547 193.426 156.676 194.997 157.12C196.567 157.564 198.035 158.314 199.316 159.329V159.36Z" fill="black"/>
<path d="M121.255 56.7939C120.74 56.7939 120.247 56.9992 119.883 57.3647C119.52 57.7301 119.315 58.2258 119.315 58.7426V120.549C119.315 121.066 119.52 121.561 119.883 121.927C120.247 122.292 120.74 122.497 121.255 122.497C121.769 122.497 122.263 122.292 122.626 121.927C122.99 121.561 123.195 121.066 123.195 120.549V58.7349C123.193 58.2194 122.987 57.7257 122.624 57.3619C122.26 56.9982 121.768 56.7939 121.255 56.7939V56.7939Z" fill="black"/>
<path d="M128.905 152.781C128.391 152.781 127.897 152.986 127.534 153.352C127.17 153.717 126.965 154.213 126.965 154.73V183.524C126.965 184.041 127.17 184.537 127.534 184.902C127.897 185.267 128.391 185.473 128.905 185.473C129.42 185.473 129.913 185.267 130.277 184.902C130.64 184.537 130.845 184.041 130.845 183.524V154.73C130.845 154.213 130.64 153.717 130.277 153.352C129.913 152.986 129.42 152.781 128.905 152.781Z" fill="black"/>
<path d="M130.697 146.186C130.647 146.07 130.588 145.958 130.519 145.851C130.449 145.742 130.365 145.643 130.271 145.555C130.183 145.462 130.084 145.381 129.976 145.313C129.871 145.241 129.76 145.181 129.642 145.134C129.527 145.083 129.408 145.044 129.285 145.017C129.029 144.968 128.766 144.968 128.509 145.017C128.384 145.044 128.262 145.083 128.145 145.134C128.027 145.181 127.915 145.241 127.811 145.313C127.703 145.381 127.604 145.462 127.516 145.555C127.154 145.92 126.95 146.415 126.95 146.931C126.95 147.446 127.154 147.941 127.516 148.306C127.604 148.399 127.703 148.481 127.811 148.548C128.024 148.689 128.261 148.789 128.509 148.844C128.635 148.869 128.762 148.882 128.89 148.883C129.144 148.882 129.395 148.831 129.63 148.732C129.864 148.633 130.076 148.488 130.255 148.306C130.348 148.217 130.431 148.117 130.503 148.01C130.572 147.904 130.632 147.792 130.682 147.675C130.73 147.557 130.766 147.434 130.79 147.309C130.845 147.052 130.845 146.786 130.79 146.529C130.77 146.412 130.739 146.298 130.697 146.186Z" fill="black"/>
<path d="M167.979 146.186C167.928 146.07 167.869 145.958 167.8 145.851C167.73 145.742 167.646 145.643 167.552 145.555C167.464 145.462 167.365 145.381 167.257 145.313C167.153 145.241 167.041 145.181 166.923 145.134C166.808 145.083 166.689 145.044 166.566 145.017C166.31 144.968 166.047 144.968 165.791 145.017C165.665 145.044 165.543 145.083 165.426 145.134C165.308 145.181 165.197 145.241 165.092 145.313C164.984 145.381 164.885 145.462 164.797 145.555C164.435 145.92 164.231 146.415 164.231 146.931C164.231 147.446 164.435 147.941 164.797 148.306C164.885 148.399 164.984 148.481 165.092 148.548C165.305 148.689 165.542 148.789 165.791 148.844C165.916 148.869 166.043 148.882 166.171 148.883C166.425 148.882 166.676 148.831 166.911 148.732C167.145 148.633 167.358 148.488 167.536 148.306C167.629 148.217 167.712 148.117 167.785 148.01C167.853 147.904 167.913 147.792 167.963 147.675C168.011 147.557 168.047 147.434 168.072 147.309C168.127 147.052 168.127 146.786 168.072 146.529C168.051 146.412 168.02 146.298 167.979 146.186V146.186Z" fill="black"/>
<path d="M307.521 214.992H1.93972C1.68471 214.993 1.43202 214.944 1.19622 214.846C0.960417 214.748 0.746177 214.605 0.565854 214.424C0.385531 214.243 0.242694 214.027 0.145578 213.79C0.0484621 213.554 -0.00101058 213.3 1.56439e-05 213.044V37.7587C1.56439e-05 37.2419 0.204377 36.7462 0.568142 36.3807C0.931908 36.0153 1.42528 35.81 1.93972 35.81H193.063C193.577 35.81 194.071 36.0153 194.434 36.3807C194.798 36.7462 195.003 37.2419 195.003 37.7587C195.003 38.2755 194.798 38.7712 194.434 39.1366C194.071 39.5021 193.577 39.7074 193.063 39.7074H3.87943V211.095H305.581V139.802C305.581 139.285 305.786 138.79 306.149 138.424C306.513 138.059 307.007 137.854 307.521 137.854C308.035 137.854 308.529 138.059 308.893 138.424C309.256 138.79 309.461 139.285 309.461 139.802V213.075C309.455 213.587 309.247 214.076 308.884 214.435C308.521 214.794 308.031 214.994 307.521 214.992Z" fill="black"/>
</g>
<defs>
<clipPath id="clip0_112_45">
<rect width="332" height="215" fill="white"/>
</clipPath>
</defs>
</svg>
