<svg width="178" height="178" viewBox="0 0 178 178" fill="none" xmlns="http://www.w3.org/2000/svg">
<path d="M113.192 82.4911C109.659 85.6873 104.87 87.4827 99.8758 87.4827C94.8819 87.4827 90.0923 85.6873 86.56 82.4911C86.022 82.0219 85.3019 81.7628 84.5549 81.7696C83.8079 81.7765 83.0938 82.0486 82.5663 82.5276C82.0388 83.0065 81.7402 83.6538 81.7348 84.3302C81.7293 85.0065 82.0176 85.6577 82.5373 86.1435C87.1426 90.2992 93.3795 92.6327 99.8815 92.6327C106.384 92.6327 112.621 90.2992 117.226 86.1435C117.761 85.6591 118.061 85.0023 118.061 84.3173C118.061 83.6324 117.761 82.9755 117.226 82.4911C116.961 82.2513 116.646 82.0611 116.3 81.9313C115.954 81.8015 115.583 81.7347 115.209 81.7347C114.452 81.7347 113.727 82.0068 113.192 82.4911Z" fill="black"/>
<path d="M153.391 45.9648H148.891C147.166 41.514 144.133 37.6903 140.192 34.9972C136.251 32.3041 131.588 30.8678 126.815 30.8776C122.042 30.8873 117.384 32.3426 113.454 35.0518C109.525 37.761 106.507 41.597 104.8 46.0548L95.9572 45.9873C94.2348 41.5439 91.2094 37.7252 87.2781 35.0325C83.3468 32.3397 78.6933 30.8988 73.9285 30.8988C69.1637 30.8988 64.5102 32.3397 60.5789 35.0325C56.6476 37.7252 53.6222 41.5439 51.8998 45.9873H48.2209C47.4749 45.9873 46.7595 46.2837 46.232 46.8112C45.7045 47.3388 45.4082 48.0543 45.4082 48.8004C45.4082 49.5465 45.7045 50.262 46.232 50.7896C46.7595 51.3172 47.4749 51.6136 48.2209 51.6136H50.471C50.3505 52.5616 50.2866 53.516 50.2797 54.4717C50.2797 60.7388 52.7689 66.7493 57.1997 71.1808C61.6305 75.6124 67.6399 78.102 73.906 78.102C80.172 78.102 86.1815 75.6124 90.6123 71.1808C95.043 66.7493 97.5322 60.7388 97.5322 54.4717C97.5257 53.5272 97.4618 52.584 97.341 51.6473H103.394C103.277 52.5692 103.217 53.4974 103.214 54.4267C103.214 60.6938 105.703 66.7043 110.134 71.1358C114.565 75.5674 120.574 78.057 126.84 78.057C133.106 78.057 139.116 75.5674 143.546 71.1358C147.977 66.7043 150.466 60.6938 150.466 54.4267C150.459 53.471 150.396 52.5166 150.275 51.5685H153.391C154.137 51.5685 154.853 51.2722 155.38 50.7446C155.908 50.217 156.204 49.5015 156.204 48.7554C156.204 48.0093 155.908 47.2938 155.38 46.7662C154.853 46.2387 154.137 45.9423 153.391 45.9423V45.9648ZM73.906 72.4532C70.3457 72.4532 66.8654 71.3973 63.9052 69.419C60.9449 67.4407 58.6377 64.6288 57.2752 61.339C55.9128 58.0492 55.5563 54.4292 56.2509 50.9368C56.9455 47.4443 58.6599 44.2363 61.1774 41.7184C63.6949 39.2005 66.9023 37.4858 70.3942 36.7911C73.886 36.0964 77.5054 36.4529 80.7946 37.8156C84.0839 39.1783 86.8953 41.4859 88.8732 44.4467C90.8512 47.4074 91.9069 50.8883 91.9069 54.4492C91.9069 59.2242 90.0104 63.8036 86.6346 67.18C83.2588 70.5564 78.6801 72.4532 73.906 72.4532ZM126.84 72.4532C123.28 72.4532 119.8 71.3973 116.839 69.419C113.879 67.4407 111.572 64.6288 110.209 61.339C108.847 58.0492 108.49 54.4292 109.185 50.9368C109.88 47.4443 111.594 44.2363 114.111 41.7184C116.629 39.2005 119.836 37.4858 123.328 36.7911C126.82 36.0964 130.439 36.4529 133.729 37.8156C137.018 39.1783 139.829 41.4859 141.807 44.4467C143.785 47.4074 144.841 50.8883 144.841 54.4492C144.841 59.2242 142.945 63.8036 139.569 67.18C136.193 70.5564 131.614 72.4532 126.84 72.4532Z" fill="black"/>
<path d="M103.342 107.043C103.272 106.88 103.188 106.722 103.092 106.572C102.993 106.419 102.876 106.279 102.743 106.155C102.62 106.024 102.481 105.91 102.329 105.815C102.183 105.714 102.026 105.629 101.861 105.563C101.699 105.492 101.532 105.437 101.36 105.398C101 105.33 100.63 105.33 100.27 105.398C100.095 105.437 99.9235 105.492 99.7585 105.563C99.5936 105.629 99.4366 105.714 99.2901 105.815C99.1382 105.91 98.9991 106.024 98.8762 106.155C98.3674 106.669 98.0817 107.365 98.0817 108.091C98.0817 108.817 98.3674 109.513 98.8762 110.027C98.9991 110.157 99.1382 110.272 99.2901 110.367C99.589 110.564 99.9212 110.706 100.27 110.783C100.448 110.8 100.627 110.8 100.804 110.783C101.161 110.782 101.514 110.709 101.843 110.57C102.172 110.431 102.47 110.227 102.721 109.972C102.852 109.846 102.968 109.706 103.07 109.555C103.166 109.405 103.25 109.247 103.32 109.083C103.388 108.917 103.439 108.744 103.473 108.568C103.55 108.207 103.55 107.833 103.473 107.471C103.441 107.325 103.397 107.182 103.342 107.043Z" fill="black"/>
<path d="M89 5.66879C105.481 5.66879 121.593 10.5561 135.296 19.7126C149 28.8692 159.681 41.8837 165.988 57.1105C172.295 72.3373 173.945 89.0924 170.73 105.257C167.515 121.422 159.578 136.27 147.924 147.924C136.27 159.578 121.422 167.515 105.257 170.73C89.0925 173.945 72.3373 172.295 57.1106 165.988C41.8838 159.681 28.8692 149 19.7127 135.296C10.5561 121.593 5.66882 105.481 5.66882 89C5.66733 78.0563 7.82176 67.2196 12.009 57.1087C16.1963 46.9979 22.3343 37.8109 30.0726 30.0726C37.811 22.3343 46.9979 16.1962 57.1088 12.009C67.2197 7.82171 78.0564 5.6673 89 5.66879ZM89 0C71.3975 0 54.1903 5.21976 39.5543 14.9992C24.9183 24.7786 13.511 38.6785 6.77476 54.9412C0.0385628 71.2038 -1.72393 89.0987 1.71015 106.363C5.14423 123.627 13.6207 139.486 26.0675 151.932C38.5144 164.379 54.3727 172.856 71.637 176.29C88.9013 179.724 106.796 177.961 123.059 171.225C139.321 164.489 153.221 153.082 163.001 138.446C172.78 123.81 178 106.603 178 89C177.973 65.404 168.588 42.7822 151.903 26.0973C135.218 9.41243 112.596 0.0270063 89 0Z" fill="black"/>
</svg>
