<svg width="465" height="78" viewBox="0 0 465 78" fill="none" xmlns="http://www.w3.org/2000/svg">
<path d="M33.115 65.927C27.6705 65.9314 22.3091 64.5973 17.5061 62.043C12.7031 59.4887 8.60705 55.7931 5.58109 51.2841C2.55514 46.775 0.692815 41.5917 0.159272 36.1938C-0.374272 30.796 0.437452 25.3504 2.52246 20.3399C4.60747 15.3294 7.90133 10.909 12.112 7.47043C16.3226 4.0319 21.3199 1.6816 26.6606 0.627948C32.0014 -0.425706 37.5207 -0.150151 42.7289 1.43017C47.9372 3.01049 52.6736 5.84674 56.518 9.68742C56.798 10.0593 56.934 10.5194 56.9009 10.9831C56.8678 11.4468 56.6679 11.8831 56.338 12.2118C56.008 12.5406 55.5701 12.7397 55.1046 12.7727C54.6391 12.8056 54.1773 12.6702 53.804 12.3912C49.7175 8.3206 44.5112 5.54853 38.8434 4.42558C33.1756 3.30264 27.3008 3.87924 21.9619 6.08248C16.623 8.28572 12.0598 12.0167 8.84929 16.8035C5.6388 21.5903 3.92521 27.2181 3.92521 32.9751C3.92521 38.7321 5.6388 44.3599 8.84929 49.1467C12.0598 53.9335 16.623 57.6645 21.9619 59.8677C27.3008 62.071 33.1756 62.6476 38.8434 61.5246C44.5112 60.4017 49.7175 57.6296 53.804 53.5589C54.1691 53.2066 54.6585 53.0112 55.1669 53.0149C55.6752 53.0186 56.1617 53.221 56.5217 53.5786C56.8816 53.9362 57.0862 54.4203 57.0913 54.9267C57.0964 55.4331 56.9017 55.9212 56.5491 56.286C53.474 59.3529 49.8205 61.7837 45.7987 63.4383C41.7769 65.093 37.4663 65.9388 33.115 65.927Z" fill="black"/>
<path d="M125.044 65.9271C122.563 65.9271 116.514 64.3048 113.242 61.0602C110.117 57.9392 108.362 53.7108 108.362 49.3024C108.362 44.894 110.117 40.6655 113.242 37.5446C113.422 37.365 113.636 37.2226 113.872 37.1254C114.107 37.0282 114.36 36.9782 114.615 36.9782C114.869 36.9782 115.122 37.0282 115.357 37.1254C115.593 37.2226 115.807 37.365 115.987 37.5446C116.167 37.7242 116.31 37.9373 116.408 38.172C116.505 38.4066 116.556 38.658 116.556 38.912C116.556 39.1659 116.505 39.4174 116.408 39.652C116.31 39.8866 116.167 40.0998 115.987 40.2793C113.589 42.6759 112.242 45.9221 112.242 49.3063C112.242 52.6904 113.589 55.9366 115.987 58.3332C118.422 60.7589 123.509 62.0645 125.044 62.0645C126.58 62.0645 131.667 60.7589 134.109 58.3332C136.508 55.9366 137.854 52.6904 137.854 49.3063C137.854 45.9221 136.508 42.6759 134.109 40.2793C133.924 40.1014 133.776 39.8885 133.674 39.653C133.572 39.4176 133.518 39.1642 133.516 38.9078C133.513 38.6514 133.562 38.397 133.659 38.1595C133.756 37.922 133.9 37.7062 134.081 37.5246C134.263 37.3431 134.479 37.1993 134.717 37.1019C134.956 37.0045 135.211 36.9552 135.468 36.9571C135.726 36.9589 135.98 37.0119 136.217 37.1127C136.453 37.2136 136.667 37.3604 136.847 37.5446C139.972 40.6655 141.727 44.894 141.727 49.3024C141.727 53.7108 139.972 57.9392 136.847 61.0602C133.59 64.3048 127.526 65.9271 125.044 65.9271Z" fill="black"/>
<path d="M161.894 37.3437C164.347 37.3437 166.746 38.0687 168.787 39.4268C170.827 40.785 172.417 42.7154 173.356 44.974C174.295 47.2325 174.541 49.7178 174.062 52.1155C173.584 54.5132 172.402 56.7156 170.667 58.4442C168.932 60.1728 166.721 61.35 164.314 61.827C161.907 62.3039 159.413 62.0591 157.146 61.1236C154.878 60.1881 152.941 58.6038 151.577 56.5711C150.214 54.5385 149.486 52.1487 149.486 49.7041C149.486 46.4259 150.794 43.282 153.12 40.964C155.447 38.646 158.603 37.3437 161.894 37.3437ZM161.894 33.4811C158.673 33.4811 155.524 34.4326 152.846 36.2152C150.169 37.9978 148.081 40.5315 146.849 43.4958C145.616 46.4602 145.294 49.7221 145.922 52.869C146.55 56.016 148.101 58.9066 150.379 61.1755C152.656 63.4443 155.558 64.9894 158.717 65.6153C161.876 66.2413 165.15 65.9201 168.125 64.6922C171.101 63.4643 173.644 61.385 175.434 58.7171C177.223 56.0492 178.178 52.9127 178.178 49.7041C178.178 45.4015 176.462 41.2751 173.408 38.2327C170.354 35.1903 166.212 33.4811 161.894 33.4811Z" fill="black"/>
<path d="M67.5138 62.4507C70.097 64.4789 73.2362 65.6804 76.518 65.8969C79.7999 66.1134 83.0706 65.3348 85.8997 63.6635L87.8926 65.2086C88.0912 65.3752 88.3213 65.5003 88.5694 65.5766C88.8174 65.6529 89.0783 65.6788 89.3366 65.6527C89.5949 65.6267 89.8452 65.5492 90.0729 65.4249C90.3006 65.3006 90.5008 65.1321 90.6619 64.9292C90.8229 64.7264 90.9414 64.4934 91.0103 64.244C91.0792 63.9947 91.0972 63.7341 91.0631 63.4777C91.029 63.2213 90.9436 62.9744 90.8119 62.7515C90.6802 62.5287 90.505 62.3344 90.2965 62.1803L89.0635 61.2146C89.5334 60.7538 89.9761 60.2663 90.3895 59.7546C92.3857 57.2368 93.5877 54.1859 93.8435 50.9876C94.0992 47.7893 93.3973 44.5873 91.8265 41.7864C90.2556 38.9855 87.8864 36.7115 85.0183 35.252C82.1503 33.7925 78.9122 33.213 75.7135 33.5867C72.5149 33.9605 69.4993 35.2707 67.0481 37.3517C64.5969 39.4328 62.8201 42.1912 61.9425 45.2782C61.0648 48.3652 61.1257 51.6421 62.1174 54.6946C63.109 57.7472 64.987 60.4382 67.5138 62.4275V62.4507ZM85.2949 40.0476C87.2209 41.5625 88.6528 43.6125 89.4094 45.9381C90.1659 48.2638 90.2132 50.7608 89.5452 53.1133C88.8772 55.4657 87.524 57.568 85.6566 59.1542C83.7892 60.7405 81.4916 61.7394 79.0543 62.0247C76.617 62.3099 74.1496 61.8688 71.964 60.7569C69.7784 59.6451 67.9729 57.9125 66.7758 55.7784C65.5787 53.6442 65.0437 51.2043 65.2386 48.7673C65.4334 46.3302 66.3494 44.0054 67.8705 42.087C68.8787 40.8118 70.1291 39.7468 71.5503 38.953C72.9716 38.1592 74.5359 37.652 76.1539 37.4605C77.7719 37.2689 79.4119 37.3968 80.9803 37.8367C82.5488 38.2766 84.0148 39.02 85.2949 40.0244V40.0476Z" fill="black"/>
<path d="M102.657 0.811134C102.143 0.811134 101.65 1.01461 101.286 1.3768C100.923 1.73899 100.719 2.23023 100.719 2.74244V63.9957C100.719 64.5079 100.923 64.9992 101.286 65.3614C101.65 65.7235 102.143 65.927 102.657 65.927C103.171 65.927 103.664 65.7235 104.028 65.3614C104.391 64.9992 104.596 64.5079 104.596 63.9957V2.73471C104.594 2.22384 104.389 1.73459 104.025 1.37406C103.662 1.01354 103.17 0.81113 102.657 0.811134Z" fill="black"/>
<path d="M288.927 65.1736C284.502 65.1696 280.259 63.417 277.129 60.3003C273.999 57.1837 272.238 52.9576 272.232 48.549V34.7053C272.232 34.1931 272.436 33.7019 272.799 33.3397C273.163 32.9775 273.656 32.774 274.17 32.774C274.684 32.774 275.177 32.9775 275.541 33.3397C275.904 33.7019 276.109 34.1931 276.109 34.7053V48.549C276.191 51.8803 277.577 55.0477 279.971 57.3749C282.366 59.7021 285.578 61.0047 288.923 61.0047C292.268 61.0047 295.48 59.7021 297.875 57.3749C300.269 55.0477 301.655 51.8803 301.737 48.549V34.7053C301.737 34.1931 301.942 33.7019 302.305 33.3397C302.669 32.9775 303.162 32.774 303.676 32.774C304.19 32.774 304.683 32.9775 305.047 33.3397C305.41 33.7019 305.615 34.1931 305.615 34.7053V48.549C305.608 52.9562 303.848 57.1812 300.72 60.2976C297.592 63.414 293.351 65.1675 288.927 65.1736Z" fill="black"/>
<path d="M411.734 32.6505C416.158 32.6546 420.399 34.4063 423.527 37.5215C426.656 40.6367 428.416 44.8609 428.422 49.2675V63.1033C428.422 63.6155 428.218 64.1068 427.854 64.469C427.491 64.8312 426.998 65.0346 426.483 65.0346C425.969 65.0346 425.476 64.8312 425.113 64.469C424.749 64.1068 424.545 63.6155 424.545 63.1033V49.2675C424.383 45.9954 422.964 42.9106 420.583 40.6518C418.201 38.393 415.038 37.1332 411.75 37.1332C408.462 37.1332 405.299 38.393 402.917 40.6518C400.536 42.9106 399.117 45.9954 398.955 49.2675V63.1033C398.955 63.6155 398.751 64.1068 398.387 64.469C398.024 64.8312 397.531 65.0346 397.016 65.0346C396.502 65.0346 396.009 64.8312 395.646 64.469C395.282 64.1068 395.078 63.6155 395.078 63.1033V49.2675C395.084 44.8662 396.84 40.6467 399.962 37.5324C403.084 34.4181 407.317 32.6627 411.734 32.6505Z" fill="black"/>
<path d="M334.593 77.5417C330.167 77.5356 325.924 75.7813 322.794 72.6634C319.665 69.5456 317.904 65.3186 317.898 60.9093C317.898 60.3971 318.102 59.9059 318.465 59.5437C318.829 59.1815 319.322 58.978 319.836 58.978C320.35 58.978 320.844 59.1815 321.207 59.5437C321.571 59.9059 321.775 60.3971 321.775 60.9093C321.67 62.6479 321.922 64.3895 322.518 66.0271C323.113 67.6647 324.039 69.1637 325.237 70.4318C326.435 71.6999 327.882 72.7104 329.487 73.4011C331.092 74.0918 332.821 74.4481 334.57 74.4481C336.318 74.4481 338.048 74.0918 339.653 73.4011C341.258 72.7104 342.704 71.6999 343.903 70.4318C345.101 69.1637 346.026 67.6647 346.622 66.0271C347.217 64.3895 347.47 62.6479 347.365 60.9093V34.7053C347.365 34.1931 347.569 33.7019 347.932 33.3397C348.296 32.9775 348.789 32.774 349.303 32.774C349.817 32.774 350.311 32.9775 350.674 33.3397C351.038 33.7019 351.242 34.1931 351.242 34.7053V60.9093C351.238 65.3112 349.484 69.5324 346.364 72.6493C343.244 75.7663 339.012 77.5254 334.593 77.5417Z" fill="black"/>
<path d="M448.716 36.459C451.169 36.459 453.568 37.184 455.609 38.5421C457.649 39.9003 459.239 41.8307 460.178 44.0893C461.117 46.3479 461.363 48.8331 460.884 51.2308C460.406 53.6285 459.224 55.8309 457.489 57.5595C455.754 59.2881 453.543 60.4653 451.136 60.9423C448.729 61.4192 446.235 61.1744 443.968 60.2389C441.7 59.3034 439.763 57.7191 438.399 55.6865C437.036 53.6538 436.308 51.2641 436.308 48.8194C436.308 45.5412 437.616 42.3973 439.942 40.0793C442.269 37.7613 445.425 36.459 448.716 36.459ZM448.716 32.5964C445.495 32.5964 442.346 33.5479 439.668 35.3305C436.99 37.1131 434.903 39.6468 433.671 42.6111C432.438 45.5755 432.116 48.8374 432.744 51.9844C433.372 55.1313 434.923 58.022 437.201 60.2908C439.478 62.5596 442.38 64.1047 445.539 64.7307C448.698 65.3566 451.972 65.0354 454.947 63.8075C457.923 62.5796 460.466 60.5003 462.256 57.8324C464.045 55.1646 465 52.028 465 48.8194C465 44.5168 463.284 40.3904 460.23 37.348C457.176 34.3056 453.034 32.5964 448.716 32.5964Z" fill="black"/>
<path d="M253.915 69.0672L253.031 68.1865L252.814 67.9625C257.048 65.3013 260.625 61.7247 263.282 57.4981C265.938 53.2714 267.605 48.5031 268.16 43.5469C268.714 38.5908 268.141 33.5739 266.483 28.8684C264.825 24.163 262.125 19.8898 258.584 16.3658C254.262 12.0685 248.839 9.03597 242.905 7.59892C236.972 6.16186 230.757 6.37545 224.937 8.21641C219.117 10.0574 213.917 13.455 209.902 18.0387C205.888 22.6224 203.214 28.2163 202.173 34.2101C201.131 40.204 201.761 46.3678 203.995 52.0292C206.229 57.6905 209.98 62.6322 214.84 66.3152C219.7 69.9981 225.481 72.281 231.554 72.9148C237.627 73.5486 243.758 72.5089 249.278 69.9093L250.286 70.9135L251.17 71.7942L256.823 77.4336C257.187 77.7963 257.681 78 258.196 78C258.711 78 259.204 77.7963 259.568 77.4336C259.932 77.071 260.137 76.5791 260.137 76.0663C260.137 75.5534 259.932 75.0616 259.568 74.6989L253.915 69.0672ZM234.987 69.2372C227.891 69.2207 221.042 66.641 215.709 61.9765C210.377 57.312 206.924 50.8793 205.99 43.8714C205.057 36.8636 206.706 29.7562 210.632 23.8675C214.558 17.9788 220.495 13.7084 227.341 11.8483C234.187 9.98827 241.478 10.6648 247.861 13.7524C254.244 16.8401 259.287 22.1292 262.054 28.639C264.821 35.1487 265.124 42.4373 262.908 49.1528C260.691 55.8683 256.105 61.555 249.999 65.1583L247.378 62.5471C247.014 62.1845 246.521 61.9808 246.006 61.9808C245.491 61.9808 244.997 62.1845 244.633 62.5471C244.269 62.9098 244.065 63.4016 244.065 63.9145C244.065 64.4274 244.269 64.9192 244.633 65.2819L246.339 66.9737C242.743 68.4686 238.884 69.238 234.987 69.2372Z" fill="black"/>
<path d="M364.673 61.6973C367.256 63.7256 370.395 64.927 373.677 65.1435C376.959 65.36 380.229 64.5814 383.058 62.9102L385.044 64.4552C385.448 64.7728 385.962 64.9174 386.473 64.8573C386.984 64.7972 387.451 64.5372 387.769 64.1346C388.088 63.732 388.233 63.2197 388.173 62.7105C388.113 62.2013 387.852 61.7368 387.447 61.4192L386.222 60.4535C386.69 59.9953 387.13 59.5103 387.541 59.0012C389.538 56.4836 390.741 53.4326 390.997 50.2339C391.254 47.0352 390.552 43.8326 388.981 41.0311C387.411 38.2296 385.041 35.955 382.173 34.4952C379.305 33.0353 376.066 32.4557 372.867 32.8296C369.668 33.2036 366.652 34.5142 364.201 36.5959C361.749 38.6775 359.973 41.4367 359.096 44.5243C358.218 47.6119 358.28 50.8893 359.273 53.942C360.266 56.9947 362.145 59.6855 364.673 61.6741V61.6973ZM382.454 39.2942C384.379 40.8098 385.809 42.8599 386.565 45.1855C387.32 47.511 387.367 50.0075 386.698 52.3594C386.03 54.7112 384.676 56.8128 382.809 58.3984C380.942 59.984 378.644 60.9825 376.208 61.2676C373.771 61.5527 371.304 61.1116 369.119 60.0001C366.933 58.8886 365.128 57.1566 363.931 55.023C362.734 52.8895 362.198 50.4502 362.392 48.0135C362.586 45.5769 363.501 43.2523 365.022 41.3336C366.029 40.0567 367.28 38.9901 368.701 38.1949C370.123 37.3997 371.688 36.8914 373.307 36.6991C374.926 36.5068 376.567 36.6343 378.136 37.0743C379.706 37.5143 381.173 38.2581 382.454 39.2633V39.2942Z" fill="black"/>
<path d="M312.082 32.774C311.568 32.774 311.075 32.9775 310.711 33.3397C310.347 33.7019 310.143 34.1931 310.143 34.7053V63.2423C310.143 63.7546 310.347 64.2458 310.711 64.608C311.075 64.9702 311.568 65.1736 312.082 65.1736C312.596 65.1736 313.089 64.9702 313.453 64.608C313.816 64.2458 314.02 63.7546 314.02 63.2423V34.7053C314.02 34.1931 313.816 33.7019 313.453 33.3397C313.089 32.9775 312.596 32.774 312.082 32.774Z" fill="black"/>
<path d="M313.873 26.2385C313.823 26.1231 313.763 26.0119 313.695 25.9063C313.625 25.7986 313.541 25.7 313.447 25.6128C313.359 25.5207 313.26 25.4402 313.152 25.3733C313.048 25.3021 312.936 25.2425 312.818 25.1956C312.704 25.1455 312.584 25.1066 312.462 25.0797C312.206 25.0315 311.942 25.0315 311.686 25.0797C311.561 25.1066 311.439 25.1454 311.322 25.1956C311.204 25.2425 311.093 25.3021 310.988 25.3733C310.88 25.4402 310.781 25.5207 310.694 25.6128C310.331 25.9748 310.128 26.4651 310.128 26.9763C310.128 27.4874 310.331 27.9778 310.694 28.3398C310.781 28.4319 310.88 28.5124 310.988 28.5792C311.201 28.7186 311.438 28.818 311.686 28.8728C311.811 28.8975 311.939 28.9104 312.066 28.9114C312.32 28.9103 312.572 28.8592 312.806 28.7611C313.04 28.663 313.252 28.5198 313.431 28.3398C313.524 28.2508 313.607 28.1524 313.679 28.0462C313.748 27.9406 313.807 27.8295 313.858 27.714C313.905 27.5968 313.942 27.4752 313.966 27.351C314.021 27.0963 314.021 26.833 313.966 26.5784C313.945 26.4626 313.914 26.3488 313.873 26.2385Z" fill="black"/>
<path d="M351.133 26.2385C351.083 26.1231 351.024 26.0119 350.955 25.9063C350.885 25.7986 350.801 25.7 350.707 25.6128C350.619 25.5207 350.52 25.4402 350.412 25.3733C350.308 25.3021 350.196 25.2425 350.079 25.1956C349.964 25.1455 349.844 25.1066 349.722 25.0797C349.466 25.0315 349.203 25.0315 348.947 25.0797C348.822 25.1066 348.7 25.1454 348.582 25.1956C348.465 25.2425 348.353 25.3021 348.249 25.3733C348.141 25.4402 348.041 25.5207 347.954 25.6128C347.592 25.9748 347.388 26.4651 347.388 26.9763C347.388 27.4874 347.592 27.9778 347.954 28.3398C348.041 28.4319 348.141 28.5124 348.249 28.5792C348.461 28.7186 348.698 28.818 348.947 28.8728C349.072 28.8975 349.199 28.9104 349.327 28.9114C349.581 28.9103 349.832 28.8592 350.066 28.7611C350.3 28.663 350.513 28.5198 350.691 28.3398C350.784 28.2508 350.867 28.1524 350.939 28.0462C351.008 27.9406 351.068 27.8295 351.118 27.714C351.166 27.5968 351.202 27.4752 351.226 27.351C351.281 27.0963 351.281 26.833 351.226 26.5784C351.206 26.4626 351.175 26.3488 351.133 26.2385Z" fill="black"/>
</svg>
